<?xml version="1.0" encoding="UTF-8" standalone="no"?>
<!-- Created with Inkscape (http://www.inkscape.org/) -->

<svg
   width="500"
   height="500"
   viewBox="0 0 500 500"
   version="1.1"
   id="svg1"
   inkscape:version="1.4.2 (f4327f4, 2025-05-13)"
   sodipodi:docname="dragon_spinner.svg"
   xmlns:inkscape="http://www.inkscape.org/namespaces/inkscape"
   xmlns:sodipodi="http://sodipodi.sourceforge.net/DTD/sodipodi-0.dtd"
   xmlns:xlink="http://www.w3.org/1999/xlink"
   xmlns="http://www.w3.org/2000/svg"
   xmlns:svg="http://www.w3.org/2000/svg">
  <sodipodi:namedview
     id="namedview1"
     pagecolor="#ffffff"
     bordercolor="#000000"
     borderopacity="0.25"
     inkscape:showpageshadow="2"
     inkscape:pageopacity="0.0"
     inkscape:pagecheckerboard="0"
     inkscape:deskcolor="#d1d1d1"
     inkscape:document-units="px"
     showgrid="true"
     inkscape:zoom="1.1525841"
     inkscape:cx="211.26442"
     inkscape:cy="174.82456"
     inkscape:window-width="1920"
     inkscape:window-height="1017"
     inkscape:window-x="-8"
     inkscape:window-y="-8"
     inkscape:window-maximized="1"
     inkscape:current-layer="layer1">
    <inkscape:grid
       id="grid1"
       units="px"
       originx="0"
       originy="0"
       spacingx="1"
       spacingy="1"
       empcolor="#0099e5"
       empopacity="0.30196078"
       color="#0099e5"
       opacity="0.14901961"
       empspacing="5"
       enabled="true"
       visible="true" />
  </sodipodi:namedview>
  <defs
     id="defs1">
    <linearGradient
       id="linearGradient178"
       inkscape:collect="always">
      <stop
         style="stop-color:#3544b1;stop-opacity:1;"
         offset="0"
         id="stop177" />
      <stop
         style="stop-color:#6d35b1;stop-opacity:0.49589491;"
         offset="1"
         id="stop178" />
    </linearGradient>
    <linearGradient
       id="linearGradient176"
       inkscape:collect="always">
      <stop
         style="stop-color:#3544b1;stop-opacity:1;"
         offset="0"
         id="stop175" />
      <stop
         style="stop-color:#a535b1;stop-opacity:0.49589491;"
         offset="1"
         id="stop176" />
    </linearGradient>
    <linearGradient
       id="linearGradient174"
       inkscape:collect="always">
      <stop
         style="stop-color:#3544b1;stop-opacity:1;"
         offset="0"
         id="stop173" />
      <stop
         style="stop-color:#b1354d;stop-opacity:0.50082099;"
         offset="1"
         id="stop174" />
    </linearGradient>
    <linearGradient
       id="linearGradient172"
       inkscape:collect="always">
      <stop
         style="stop-color:#3544b1;stop-opacity:1;"
         offset="0"
         id="stop171" />
      <stop
         style="stop-color:#b17935;stop-opacity:0.50410509;"
         offset="1"
         id="stop172" />
    </linearGradient>
    <linearGradient
       id="linearGradient170"
       inkscape:collect="always">
      <stop
         style="stop-color:#3544b1;stop-opacity:1;"
         offset="0"
         id="stop169" />
      <stop
         style="stop-color:#83b135;stop-opacity:0.50246304;"
         offset="1"
         id="stop170" />
    </linearGradient>
    <linearGradient
       id="linearGradient168"
       inkscape:collect="always">
      <stop
         style="stop-color:#3544b1;stop-opacity:1;"
         offset="0"
         id="stop167" />
      <stop
         style="stop-color:#35b16c;stop-opacity:0.49917898;"
         offset="1"
         id="stop168" />
    </linearGradient>
    <linearGradient
       id="linearGradient166"
       inkscape:collect="always">
      <stop
         style="stop-color:#3544b1;stop-opacity:1;"
         offset="0"
         id="stop165" />
      <stop
         style="stop-color:#35b1b0;stop-opacity:0.50246304;"
         offset="1"
         id="stop166" />
    </linearGradient>
    <linearGradient
       id="linearGradient146"
       inkscape:collect="always">
      <stop
         style="stop-color:#3544b1;stop-opacity:1;"
         offset="0"
         id="stop146" />
      <stop
         style="stop-color:#3565b1;stop-opacity:0.50410509;"
         offset="1"
         id="stop147" />
    </linearGradient>
    <linearGradient
       inkscape:collect="always"
       xlink:href="#linearGradient166"
       id="linearGradient147"
       x1="234.97414"
       y1="210.48711"
       x2="237.91061"
       y2="154.7251"
       gradientUnits="userSpaceOnUse" />
    <linearGradient
       inkscape:collect="always"
       xlink:href="#linearGradient168"
       id="linearGradient150"
       x1="188.53844"
       y1="129.16507"
       x2="151.72862"
       y2="73.350418"
       gradientUnits="userSpaceOnUse"
       gradientTransform="translate(3.0674847,-2.4539877)" />
    <linearGradient
       inkscape:collect="always"
       xlink:href="#linearGradient170"
       id="linearGradient154"
       x1="133.12883"
       y1="160.1227"
       x2="99.386505"
       y2="126.38036"
       gradientUnits="userSpaceOnUse" />
    <linearGradient
       inkscape:collect="always"
       xlink:href="#linearGradient172"
       id="linearGradient157"
       x1="95.092026"
       y1="200"
       x2="51.533741"
       y2="190.79755"
       gradientUnits="userSpaceOnUse" />
    <linearGradient
       inkscape:collect="always"
       xlink:href="#linearGradient174"
       id="linearGradient159"
       x1="85.889572"
       y1="268.71167"
       x2="40.490799"
       y2="268.71167"
       gradientUnits="userSpaceOnUse" />
    <linearGradient
       inkscape:collect="always"
       xlink:href="#linearGradient176"
       id="linearGradient161"
       x1="85.27607"
       y1="320.85892"
       x2="51.533741"
       y2="331.90186"
       gradientUnits="userSpaceOnUse" />
    <linearGradient
       inkscape:collect="always"
       xlink:href="#linearGradient178"
       id="linearGradient163"
       x1="114.72393"
       y1="373.61963"
       x2="93.865028"
       y2="391.41104"
       gradientUnits="userSpaceOnUse" />
    <linearGradient
       inkscape:collect="always"
       xlink:href="#linearGradient146"
       id="linearGradient165"
       x1="157.05522"
       y1="414.11044"
       x2="142.97563"
       y2="435.9422"
       gradientUnits="userSpaceOnUse" />
  </defs>
  <g
     inkscape:label="Layer 1"
     inkscape:groupmode="layer"
     id="layer1"
     style="display:inline">
    <g
       id="g5"
       transform="rotate(-2.3516996,-2255.3149,-262.90213)">
      <path
         style="fill:url(#linearGradient147);fill-rule:evenodd;stroke:#000000;stroke-width:2;stroke-linecap:round"
         d="m 255,185 c -25,10 -50,0 -60,0 -3.89719,-23.81003 -15,-35 -20,-40 20,-15 32.90439,-3.00082 35,-10 -14.29849,-6.44862 -16.48407,-5.31604 -30,-5 -21.99982,23.32345 -53.41732,14.61951 -75,15 27.4268,-3.69743 51.9544,-10.56708 65,-30 46.18043,-6.02617 47.92419,12.63471 70,20 1.99837,0.54053 45.26841,-7.83643 55,20 18.22038,3.93575 46.63097,16.85702 65,20 0.85584,-5.26592 10.54092,4.62083 10,5 6.66667,6.66667 -3.33333,13.33333 -10,20 -20.26503,-1.00039 -34.69244,-14.32912 -105,-15 z"
         id="path3"
         sodipodi:nodetypes="ccccccccccccc" />
      <path
         style="fill:none;fill-rule:evenodd;stroke:#000000;stroke-width:2;stroke-linecap:round"
         d="m 245,145 c 16.56834,-2.20749 32.97432,2.54907 40,8 -6.33593,5.34845 -11.42877,6.72839 -25,7 -19.41733,-6.87694 -12.62544,-10.59124 -15,-15 z"
         id="path4"
         sodipodi:nodetypes="cccc" />
    </g>
    <path
       style="fill:url(#linearGradient150);fill-rule:evenodd;stroke:#000000;stroke-width:2;stroke-linecap:round"
       d="m 158.06748,57.546012 c 10,-5 10,-5 20,-5 15,15 10,10 20,35 -18.75556,15.398618 -30.94033,26.834298 -55,29.999998 L 120.28024,86.924989 c -0.81167,-5.76959 9.5981,-16.121077 22.78724,-19.378977 -10,-5 -15,-5 -20,0 -3.45943,12.669413 -15,20 -41.475031,30.70392 9.244566,-9.479979 26.475031,-15.70392 31.475031,-40.70392 15,-10 35,-5 45,0 z"
       id="path5"
       sodipodi:nodetypes="cccccccccc" />
    <path
       d="m 95,115 c 8.3792,-7.40197 7.54862,-13.05113 17.21276,-15.621023 10,10.000003 11.39362,15.310513 22.78724,30.621023 -10,15 -20,25 -35,30 L 70,145 c -2.26713,-5.36723 3.09107,-13.46204 15,-20 -10.94909,-2.26217 -16.45287,-1.11702 -20,5 0,10 -10,15 -30,20 20,-15 20,-15 25,-30 10,-10 24.05091,-7.26218 35,-5 z"
       style="fill:url(#linearGradient154);fill-rule:evenodd;stroke:#000000;stroke-width:2;stroke-linecap:round;fill-opacity:1"
       id="path1-2"
       sodipodi:nodetypes="cccccccccc" />
    <path
       d="m 45,179 c 1,-7 3,-8 7,-12 13.726417,3.40374 12.338997,1.76706 30,9 -0.82307,18.00895 -1.73305,31.97545 -12,44 l -25,-5 c -5,-7 -4,-12 -2,-18 -6,-1 -14,3 -16,10 5.161339,8.56509 2.54949,13.39478 -12,28 9.359257,-21.31869 5,-21 1,-34 3.403741,-13.72642 19.033464,-20.37288 29,-22 z"
       style="fill:url(#linearGradient157);fill-rule:evenodd;stroke:#000000;stroke-width:2;stroke-linecap:round;fill-opacity:1"
       id="path1-2-7"
       sodipodi:nodetypes="cccccccccc" />
    <path
       d="m 35,255 c 0,-5 0,-5 3.76082,-7.26133 C 52.898936,248.07624 51.188822,246.7804 70,250 c 3.11257,17.75702 5,30 0,40 H 40 c -5,-5 -5.647481,-8.70869 -5,-15 -7,-3 -9,17 -10,35 -13,-24 -10,-55 10,-55 z"
       style="fill:url(#linearGradient159);fill-rule:evenodd;stroke:#000000;stroke-width:2;stroke-linecap:round;fill-opacity:1"
       id="path1-2-7-7"
       sodipodi:nodetypes="cccccccc" />
    <path
       d="m 43.011284,322.10288 c -1.643877,-2.30166 -1.479429,-3.28805 0.822238,-4.93193 13.156346,-5.18756 6.648901,-1.42417 25.231282,-5.77404 C 78.838343,326.54543 80.717188,332.31927 80,343.47658 l -21.372193,6.5749 c -4.438586,-3.78139 -6.082462,-6.08306 -8.219381,-11.50833 -4.931929,-0.82224 -6.576406,9.04162 1.642975,20.54995 -18.905478,-8.22088 -20.548453,-28.77084 -9.040117,-36.99022 z"
       style="fill:url(#linearGradient161);fill-rule:evenodd;stroke:#000000;stroke-width:2;stroke-linecap:round;fill-opacity:1"
       id="path1-23"
       sodipodi:nodetypes="cccccccc" />
    <path
       d="m 83.241079,394.22197 c -2.352071,-1.57092 -8.427538,-6.47894 -6.856626,-8.83101 8.831006,-6.85663 12.758285,-12.7368 21.55477,-14.33001 14.502227,10.70911 13.747767,12.39859 20.604397,21.2296 l -22.565737,14.6897 c -5.880177,-3.92728 -2.937941,-4.51315 -6.856627,-8.83101 0.97645,4.90373 -3.927278,5.88018 2.929348,14.71119 -11.760354,-7.85456 -7.833076,-13.73474 -8.809525,-18.63846 z"
       style="fill:url(#linearGradient163);fill-rule:evenodd;stroke:#000000;stroke-width:2;stroke-linecap:round;fill-opacity:1"
       id="path1-6"
       sodipodi:nodetypes="cccccccc" />
    <path
       d="m 145,440 c -10,-5 -15.52727,-7.22115 -15,-10 5,-5 5,-5 10,-10 17.53336,4.19296 15,5 20,10 0,15 6.66667,26.66667 20,35 -9.49102,1.28623 -43.14234,-9.64997 -35,-25 z"
       style="fill:url(#linearGradient165);fill-rule:evenodd;stroke:#000000;stroke-width:2;stroke-linecap:round;fill-opacity:1"
       id="path1-6-1"
       sodipodi:nodetypes="cccccc" />
    <path
       style="fill:none;fill-rule:evenodd;stroke:#000000;stroke-width:2;stroke-linecap:round"
       d="M 270.913,81.122066 C 250.52403,75.496558 230.13506,75.136204 209.74609,77.000892"
       id="path10"
       sodipodi:nodetypes="cc" />
    <path
       style="fill:none;fill-rule:evenodd;stroke:#000000;stroke-width:2;stroke-linecap:round"
       d="M 195.24436,83.439965 C 175.05486,90.04985 158.58317,100.15988 141.23528,113.5896"
       id="path11"
       sodipodi:nodetypes="cc" />
    <path
       style="fill:none;fill-rule:evenodd;stroke:#000000;stroke-width:2;stroke-linecap:round"
       d="m 131.66068,125.58737 c -15.00558,8.31261 -25.10298,20.54806 -34.921531,32.31869"
       id="path12"
       sodipodi:nodetypes="cc" />
    <path
       style="fill:none;fill-rule:evenodd;stroke:#000000;stroke-width:2;stroke-linecap:round"
       d="m 79.084601,175.24747 c -7.065552,11.95754 -12.082809,29.59687 -11.664697,44.28561"
       id="path13"
       sodipodi:nodetypes="cc" />
    <path
       style="fill:none;fill-rule:evenodd;stroke:#000000;stroke-width:2;stroke-linecap:round"
       d="m 65.721888,250.09022 c -2.293668,13.01424 -0.426865,26.46228 1.301424,39.47652"
       id="path14"
       sodipodi:nodetypes="cc" />
    <path
       style="fill:none;fill-rule:evenodd;stroke:#000000;stroke-width:2;stroke-linecap:round"
       d="m 65.28808,312.99236 c 1.806768,12.33319 6.301364,22.36253 12.14662,31.23416"
       id="path15"
       sodipodi:nodetypes="cc" />
    <path
       style="fill:none;fill-rule:evenodd;stroke:#000000;stroke-width:2;stroke-linecap:round"
       d="m 96.522245,372.42403 c 5.263425,9.21882 11.947105,14.5389 19.521355,20.82278"
       id="path16"
       sodipodi:nodetypes="cc" />
    <path
       style="fill:none;fill-rule:evenodd;stroke:#000000;stroke-width:2;stroke-linecap:round"
       d="m 158.99057,431.20499 c -5.36612,-2.49371 -12.98737,-4.4645 -18.65373,-10.84519"
       id="path17"
       sodipodi:nodetypes="cc" />
    <path
       style="fill:none;fill-rule:evenodd;stroke:#000000;stroke-width:2;stroke-linecap:round"
       d="m 187.90975,86.029787 c 0.48311,2.307647 -0.42934,4.779046 4.42153,5.994753"
       id="path18"
       sodipodi:nodetypes="cc" />
    <path
       style="fill:none;fill-rule:evenodd;stroke:#000000;stroke-width:2;stroke-linecap:round"
       d="m 178.22085,90.490797 c 0.67036,3.090181 1.26265,6.219392 6.44172,7.055215"
       id="path19"
       sodipodi:nodetypes="cc" />
    <path
       style="fill:none;fill-rule:evenodd;stroke:#000000;stroke-width:2;stroke-linecap:round"
       d="m 169.70859,94.93865 c -0.58457,3.734522 0.69918,8.01426 6.67177,9.04908"
       id="path20"
       sodipodi:nodetypes="cc" />
    <path
       style="fill:none;fill-rule:evenodd;stroke:#000000;stroke-width:2;stroke-linecap:round"
       d="m 160.42944,99.923312 c -0.15361,5.309638 2.10618,8.600158 7.20859,9.892638"
       id="path21"
       sodipodi:nodetypes="cc" />
    <path
       style="fill:none;fill-rule:evenodd;stroke:#000000;stroke-width:2;stroke-linecap:round"
       d="m 151.22698,106.36502 c 0.0837,2.94808 -0.25867,6.85263 4.90798,8.05216"
       id="path22"
       sodipodi:nodetypes="cc" />
    <path
       style="fill:none;fill-rule:evenodd;stroke:#000000;stroke-width:2;stroke-linecap:round"
       d="m 125.07669,129.83129 c -0.63776,2.8434 1.82335,6.00214 6.21165,5.44478"
       id="path23"
       sodipodi:nodetypes="cc" />
    <path
       style="fill:none;fill-rule:evenodd;stroke:#000000;stroke-width:2;stroke-linecap:round"
       d="m 118.09816,135.04602 c 0.71637,4.21753 -0.33526,6.6091 7.89877,6.82515"
       id="path24"
       sodipodi:nodetypes="cc" />
    <path
       style="fill:none;fill-rule:evenodd;stroke:#000000;stroke-width:2;stroke-linecap:round"
       d="m 111.19631,141.6411 c 0.0416,5.37762 3.68214,6.31276 8.3589,6.5184"
       id="path25"
       sodipodi:nodetypes="cc" />
    <path
       style="fill:none;fill-rule:evenodd;stroke:#000000;stroke-width:2;stroke-linecap:round"
       d="m 105.21472,148.77301 c 0.45009,3.9911 3.01879,5.77728 7.28528,5.29141"
       id="path26"
       sodipodi:nodetypes="cc" />
    <path
       style="fill:none;fill-rule:evenodd;stroke:#000000;stroke-width:2;stroke-linecap:round"
       d="m 75.920246,182.51533 c 1.205525,1.63854 2.565645,3.27403 5.368098,1.8405"
       id="path27"
       sodipodi:nodetypes="cc" />
    <path
       style="fill:none;fill-rule:evenodd;stroke:#000000;stroke-width:2;stroke-linecap:round"
       d="m 72.546012,190.03067 c 1.806642,2.54254 4.572126,3.85449 7.97546,1.99387"
       id="path28"
       sodipodi:nodetypes="cc" />
    <path
       style="fill:none;fill-rule:evenodd;stroke:#000000;stroke-width:2;stroke-linecap:round"
       d="m 70.245399,197.23927 c 2.231351,3.76549 6.263482,4.13243 9.509202,1.68711"
       id="path29"
       sodipodi:nodetypes="cc" />
    <path
       style="fill:none;fill-rule:evenodd;stroke:#000000;stroke-width:2;stroke-linecap:round"
       d="m 68.865031,204.60122 c 2.808266,2.26147 5.028391,2.54682 9.04908,0.76688"
       id="path30"
       sodipodi:nodetypes="cc" />
    <path
       style="fill:none;fill-rule:evenodd;stroke:#000000;stroke-width:2;stroke-linecap:round"
       d="m 68.251534,210.73619 c 0.773658,3.09146 4.19305,3.57545 7.055214,0.92025"
       id="path31"
       sodipodi:nodetypes="cc" />
    <path
       style="fill:none;fill-rule:evenodd;stroke:#000000;stroke-width:2;stroke-linecap:round"
       d="m 65.337423,256.28834 c 2.04499,1.94826 3.476483,3.39316 5.521473,0.46013"
       id="path32"
       sodipodi:nodetypes="cc" />
    <path
       style="fill:none;fill-rule:evenodd;stroke:#000000;stroke-width:2;stroke-linecap:round"
       d="m 65.030675,264.41718 c 2.202971,1.98971 4.449276,3.4594 7.055215,0.61349"
       id="path33"
       sodipodi:nodetypes="cc" />
    <path
       style="fill:none;fill-rule:evenodd;stroke:#000000;stroke-width:2;stroke-linecap:round"
       d="m 65.337423,272.23926 c 2.965235,1.52927 4.08998,2.87877 7.055215,0"
       id="path34"
       sodipodi:nodetypes="cc" />
    <path
       style="fill:none;fill-rule:evenodd;stroke:#000000;stroke-width:2;stroke-linecap:round"
       d="m 65.644172,279.29448 c 2.096865,1.05877 3.53647,3.27317 7.208588,0"
       id="path35"
       sodipodi:nodetypes="cc" />
    <path
       style="fill:none;fill-rule:evenodd;stroke:#000000;stroke-width:2;stroke-linecap:round"
       d="m 66.564417,319.32515 c 1.940106,0.41953 3.721637,1.47337 6.441718,-1.22699"
       id="path36"
       sodipodi:nodetypes="cc" />
    <path
       style="fill:none;fill-rule:evenodd;stroke:#000000;stroke-width:2;stroke-linecap:round"
       d="m 68.558282,325.6135 c 3.065597,1.52241 4.807611,1.54505 7.055215,-1.84049"
       id="path37"
       sodipodi:nodetypes="cc" />
    <path
       style="fill:none;fill-rule:evenodd;stroke:#000000;stroke-width:2;stroke-linecap:round"
       d="m 70.858896,332.20859 c 5.097813,1.89237 6.453509,-0.37318 7.97546,-2.45399"
       id="path38"
       sodipodi:nodetypes="cc" />
    <path
       style="fill:none;fill-rule:evenodd;stroke:#000000;stroke-width:2;stroke-linecap:round"
       d="m 74.386503,338.34356 c 2.848856,0.95261 4.041723,0.16866 5.06135,-1.53375"
       id="path39"
       sodipodi:nodetypes="cc" />
    <path
       style="fill:none;fill-rule:evenodd;stroke:#000000;stroke-width:2;stroke-linecap:round"
       d="m 100.15337,377.45398 c 2.55217,0.71168 2.7628,-0.91817 2.91411,-2.60735"
       id="path40"
       sodipodi:nodetypes="cc" />
    <path
       style="fill:none;fill-rule:evenodd;stroke:#000000;stroke-width:2;stroke-linecap:round"
       d="m 103.98773,382.20859 c 3.46524,0.53783 3.52034,-1.19776 3.37423,-3.06749"
       id="path41"
       sodipodi:nodetypes="cc" />
    <path
       style="fill:none;fill-rule:evenodd;stroke:#000000;stroke-width:2;stroke-linecap:round"
       d="m 109.66258,387.42331 c 1.91697,-0.013 3.28042,-0.67182 2.76073,-3.52761"
       id="path42"
       sodipodi:nodetypes="cc" />
    <path
       style="fill:none;fill-rule:evenodd;stroke:#000000;stroke-width:2;stroke-linecap:round"
       d="m 147.54601,425.46013 c 3.14532,-0.19263 1.54371,-1.11464 1.07362,-2.91412"
       id="path43"
       sodipodi:nodetypes="cc" />
    <path
       style="fill:none;fill-rule:evenodd;stroke:#000000;stroke-width:2;stroke-linecap:round"
       d="m 152.09301,428.07679 c 1.93077,-0.53953 2.44861,-1.16482 2.45398,-3.06748"
       id="path44"
       sodipodi:nodetypes="cc" />
    <path
       style="fill:none;fill-rule:evenodd;stroke:#000000;stroke-width:2;stroke-linecap:round"
       d="m 219.94504,76.851391 c -0.87552,2.372431 -2.06993,4.699306 0.97287,7.631497"
       id="path45"
       sodipodi:nodetypes="cc" />
    <path
       style="fill:none;fill-rule:evenodd;stroke:#000000;stroke-width:2;stroke-linecap:round"
       d="m 231.53343,77.300614 c -1.97794,2.507386 -0.48457,5.510676 1.53375,8.588957"
       id="path46"
       sodipodi:nodetypes="cc" />
    <path
       style="fill:none;fill-rule:evenodd;stroke:#000000;stroke-width:2;stroke-linecap:round"
       d="m 244.07291,77.120925 c -2.67892,3.271984 -3.35653,6.543967 0.30675,9.815951"
       id="path47"
       sodipodi:nodetypes="cc" />
    <path
       style="fill:none;fill-rule:evenodd;stroke:#000000;stroke-width:2;stroke-linecap:round"
       d="m 255.31095,78.003955 c -2.50021,3.033822 -2.42034,5.50657 -0.30675,7.97546"
       id="path48"
       sodipodi:nodetypes="cc" />
    <path
       style="fill:#c478e0;fill-opacity:1;fill-rule:evenodd;stroke:#c478e0;stroke-width:2;stroke-linecap:round;stroke-opacity:1"
       d="m 255.14247,84.240798 c -0.78414,-1.366975 -0.80944,-2.412289 -0.093,-3.843941 0.72319,-1.445241 0.66747,-1.413807 2.11899,-1.195432 3.50027,0.526603 11.45961,2.302123 11.12669,2.482074 -0.52353,0.282977 -4.56119,1.600331 -6.33192,2.065892 -2.08697,0.548709 -5.59186,1.296621 -6.07627,1.296621 -0.17996,0 -0.45027,-0.29238 -0.74445,-0.805214 z"
       id="path50" />
    <path
       style="fill:#c478e0;fill-opacity:1;fill-rule:evenodd;stroke:#c478e0;stroke-width:2;stroke-linecap:round;stroke-opacity:1"
       d="m 244.32372,85.314417 c -0.68067,-0.789266 -1.07611,-1.530729 -1.30843,-2.453333 -0.30204,-1.199521 0.40943,-3.220069 1.65548,-4.701469 l 0.43854,-0.521368 2.52203,0.262993 c 2.80342,0.292336 5.68613,0.67185 5.7745,0.760226 0.0316,0.03165 -0.078,0.290551 -0.24355,0.575339 -0.89215,1.534233 -1.01371,3.796732 -0.28902,5.379651 l 0.3925,0.857346 -0.9427,0.09846 c -2.54485,0.265796 -4.31008,0.384128 -5.80038,0.388831 l -1.63682,0.0052 z"
       id="path51" />
    <path
       style="fill:#c478e0;fill-opacity:1;fill-rule:evenodd;stroke:#c478e0;stroke-width:2;stroke-linecap:round;stroke-opacity:1"
       d="m 236.12574,85.775509 c -2.14776,-0.16358 -1.93395,-0.0346 -2.93066,-1.767881 -1.05395,-1.8328 -1.43269,-2.893775 -1.44008,-4.034166 -0.005,-0.849453 0.0599,-1.108453 0.41525,-1.645485 0.23197,-0.350543 0.42177,-0.776868 0.42177,-0.947388 0,-0.277526 0.0989,-0.310037 0.94331,-0.310037 1.42434,0 8.46103,0.315321 8.6852,0.389193 0.14103,0.04647 0.0891,0.226766 -0.18529,0.64291 -0.52714,0.799549 -1.10262,2.406577 -1.22318,3.41575 -0.15728,1.31649 0.11676,2.393092 1.10288,4.332822 0.0775,0.152426 -3.38905,0.107086 -5.7892,-0.07572 z"
       id="path52" />
    <path
       style="fill:#c478e0;fill-opacity:1;fill-rule:evenodd;stroke:#c478e0;stroke-width:2;stroke-linecap:round;stroke-opacity:1"
       d="m 230.21472,85.189511 c -0.50613,-0.06921 -2.57836,-0.350341 -4.60496,-0.624726 l -3.68471,-0.498881 -0.62852,-0.775283 c -0.95361,-1.176291 -1.19103,-1.725865 -1.19629,-2.769149 -0.003,-0.634508 0.12787,-1.281846 0.42213,-2.084819 l 0.42677,-1.164573 3.00868,-0.100764 c 3.18328,-0.106611 6.33359,-0.132916 6.33359,-0.05289 0,0.02633 -0.14256,0.342939 -0.31679,0.703567 -0.17424,0.360629 -0.35528,1.115541 -0.4023,1.677582 -0.13182,1.575379 0.15499,2.509919 1.76105,5.73815 0.0315,0.06327 -3e-4,0.106615 -0.0706,0.09633 -0.0703,-0.01029 -0.54192,-0.07533 -1.04806,-0.144547 z"
       id="path53" />
    <path
       style="fill:#c478e0;fill-opacity:1;fill-rule:evenodd;stroke:#c478e0;stroke-width:2;stroke-linecap:round;stroke-opacity:1"
       d="m 216.10429,83.27306 c -0.84355,-0.106997 -2.06732,-0.200473 -2.71947,-0.207726 -1.09926,-0.01222 -1.19139,-0.03835 -1.26342,-0.358279 -0.25792,-1.145576 -1.03795,-4.325331 -1.10199,-4.492234 -0.0543,-0.141386 0.16024,-0.226784 0.74045,-0.294791 1.00706,-0.118041 6.63081,-0.516245 6.68266,-0.473183 0.0207,0.01718 -0.10871,0.609851 -0.28755,1.31705 -0.38099,1.506617 -0.32513,2.813857 0.16786,3.928341 0.17168,0.388108 0.31214,0.731387 0.31214,0.762842 0,0.09088 -0.87573,0.02789 -2.53068,-0.18202 z"
       id="path54" />
    <path
       style="fill:#c478e0;fill-opacity:1;fill-rule:evenodd;stroke:#c478e0;stroke-width:2;stroke-linecap:round;stroke-opacity:1"
       d="m 191.01306,90.375767 c -1.16589,-0.591574 -1.61139,-1.182365 -1.75434,-2.326458 -0.15327,-1.226752 -0.10644,-1.307306 1.00201,-1.723521 2.48385,-0.932667 5.36404,-1.870543 5.42777,-1.767437 0.194,0.313902 1.02039,2.537112 0.98183,2.641393 -0.0759,0.205403 -4.32902,3.671543 -4.50697,3.673059 -0.0923,7.82e-4 -0.60999,-0.22288 -1.1503,-0.497036 z"
       id="path55" />
    <path
       style="fill:#c478e0;fill-opacity:1;fill-rule:evenodd;stroke:#c478e0;stroke-width:2;stroke-linecap:round;stroke-opacity:1"
       d="m 183.98962,96.306664 c -1.18977,-0.319968 -2.57057,-1.101588 -3.07069,-1.738198 -0.60867,-0.7748 -0.87777,-1.346996 -1.2282,-2.611566 l -0.30535,-1.101876 1.02817,-0.468678 c 1.6299,-0.742971 6.34102,-2.732972 6.47003,-2.732972 0.0644,0 0.16236,0.293328 0.2177,0.651841 0.27751,1.7978 1.04641,2.99883 2.42329,3.785202 l 0.76121,0.434744 -1.27786,1.058851 c -2.8882,2.393194 -3.64454,2.964582 -3.91151,2.954974 -0.15426,-0.0056 -0.65231,-0.110096 -1.10679,-0.232322 z"
       id="path56" />
    <path
       style="fill:#c478e0;fill-opacity:1;fill-rule:evenodd;stroke:#c478e0;stroke-width:2;stroke-linecap:round;stroke-opacity:1"
       d="m 175.61315,102.7052 c -2.91269,-0.83447 -4.46978,-2.50411 -4.86517,-5.216827 -0.32204,-2.20956 -0.42112,-2.090412 3.3548,-4.034361 l 3.24388,-1.670044 0.41939,1.31708 c 0.83607,2.625702 2.32428,4.19075 4.80005,5.047884 l 0.52766,0.18268 -1.28614,1.004 c -2.03837,1.591198 -4.93514,3.656208 -5.11211,3.644258 -0.089,-0.006 -0.57603,-0.12961 -1.08236,-0.27467 z"
       id="path57" />
    <path
       style="fill:#c478e0;fill-opacity:1;fill-rule:evenodd;stroke:#c478e0;stroke-width:2;stroke-linecap:round;stroke-opacity:1"
       d="m 166.32209,108.22669 c -2.51678,-1.07401 -3.93776,-2.68613 -4.51111,-5.11793 -0.12468,-0.52884 -0.22772,-1.31745 -0.22896,-1.75247 l -0.002,-0.79094 3.35615,-2.008138 c 1.84588,-1.104471 3.3988,-2.008132 3.45092,-2.008132 0.0521,0 0.096,0.1898 0.0974,0.421779 0.006,0.880803 0.47384,2.610383 0.9917,3.662851 0.71611,1.45536 2.03744,2.69931 3.64411,3.43071 0.64858,0.29524 1.18084,0.57131 1.1828,0.61349 0.009,0.19633 -6.40757,3.98695 -6.74151,3.9825 -0.12654,-0.002 -0.6842,-0.19686 -1.23926,-0.43372 z"
       id="path58" />
    <path
       style="fill:#c478e0;fill-opacity:1;fill-rule:evenodd;stroke:#c478e0;stroke-width:2;stroke-linecap:round;stroke-opacity:1"
       d="m 155.64636,113.13882 c -2.29919,-0.80438 -3.26906,-2.36378 -3.26906,-5.2561 v -1.17859 l 2.56901,-1.76126 c 2.94063,-2.01604 4.33907,-2.9204 4.40214,-2.84682 0.0241,0.0282 0.16266,0.60333 0.30785,1.27818 0.55403,2.5753 2.16085,4.89134 4.20645,6.0631 0.5108,0.29259 0.93079,0.57578 0.9333,0.6293 0.0102,0.2172 -6.76996,2.99368 -7.9709,3.2641 -0.21089,0.0475 -0.74135,-0.0389 -1.17879,-0.19191 z"
       id="path59" />
    <path
       style="fill:#c478e0;fill-opacity:1;fill-rule:evenodd;stroke:#c478e0;stroke-width:2;stroke-linecap:round;stroke-opacity:1"
       d="m 142.7916,115.3457 c -0.40006,-0.56063 -0.7018,-1.04348 -0.67054,-1.07299 0.30828,-0.29098 7.9078,-5.91201 7.99397,-5.91279 0.0633,-5.6e-4 0.11605,0.22328 0.11729,0.49744 0.003,0.72494 0.39994,2.29468 0.79341,3.13997 0.18759,0.403 0.73148,1.12561 1.20865,1.6058 l 0.86758,0.87307 -1.93442,0.46184 c -2.19414,0.52384 -5.50111,1.16871 -6.78535,1.32317 l -0.86321,0.10382 z"
       id="path60" />
    <path
       style="fill:#c478e0;fill-opacity:1;fill-rule:evenodd;stroke:#c478e0;stroke-width:2;stroke-linecap:round;stroke-opacity:1"
       d="m 128.88126,134.06461 c -0.77925,-0.20978 -0.97181,-0.32982 -1.8557,-1.15684 -0.58747,-0.54966 -1.15017,-1.92503 -0.97468,-2.38234 0.0956,-0.24928 1.39211,-1.14568 3.69244,-2.55304 l 1.67585,-1.0253 1.11552,1.54071 1.11553,1.5407 -0.47696,0.70661 c -0.26233,0.38863 -0.9253,1.34503 -1.47327,2.12532 -0.94836,1.35046 -1.02282,1.41821 -1.54753,1.40836 -0.30318,-0.006 -0.87522,-0.0976 -1.2712,-0.20418 z"
       id="path61" />
    <path
       style="fill:#c478e0;fill-opacity:1;fill-rule:evenodd;stroke:#c478e0;stroke-width:2;stroke-linecap:round;stroke-opacity:1"
       d="m 123.08282,140.56669 c -1.8026,-0.30843 -2.74861,-0.76802 -3.1404,-1.52565 -0.13265,-0.25652 -0.34443,-1.13955 -0.47064,-1.9623 l -0.22946,-1.49592 0.57823,-0.51559 c 0.31802,-0.28357 1.36953,-1.12609 2.33669,-1.87226 l 1.75846,-1.35667 0.486,1.04924 c 0.78508,1.69494 2.24277,2.87456 4.07433,3.29712 l 0.7153,0.16503 -1.75441,2.18559 -1.75441,2.18558 -0.95475,-0.018 c -0.52512,-0.01 -1.26534,-0.0712 -1.64494,-0.13613 z"
       id="path62" />
    <path
       style="fill:#c478e0;fill-opacity:1;fill-rule:evenodd;stroke:#c478e0;stroke-width:2;stroke-linecap:round;stroke-opacity:1"
       d="m 116.98579,146.8391 c -1.06585,-0.1776 -2.37459,-0.6457 -2.94917,-1.05484 -0.99942,-0.71165 -1.68999,-2.09368 -1.68999,-3.38216 0,-0.53877 0.13381,-0.69555 2.39784,-2.8094 1.31881,-1.23133 2.45761,-2.20184 2.53067,-2.15669 0.0731,0.0451 0.13284,0.2433 0.13284,0.44032 0,0.19703 0.14351,0.82289 0.31892,1.3908 0.58035,1.87895 2.00053,2.8964 4.64042,3.3245 0.60442,0.098 1.15169,0.22201 1.21616,0.27554 0.0645,0.0535 -0.7797,1.00739 -1.87594,2.11968 l -1.99315,2.02235 -0.96149,-0.0179 c -0.52882,-0.01 -1.32402,-0.0783 -1.76711,-0.15217 z"
       id="path63" />
    <path
       style="fill:#c478e0;fill-opacity:1;fill-rule:evenodd;stroke:#c478e0;stroke-width:2;stroke-linecap:round;stroke-opacity:1"
       d="m 109.26109,152.77905 c -1.52826,-0.54612 -2.41378,-1.58247 -2.80039,-3.27739 l -0.23097,-1.0126 0.39214,-0.47152 c 0.88221,-1.06078 3.61377,-3.92245 3.74411,-3.92245 0.0771,0 0.14016,0.1055 0.14016,0.23444 0,0.45047 0.89822,1.99409 1.48195,2.54678 1.14896,1.08785 2.38836,1.66823 4.34484,2.03457 l 0.99552,0.18641 -1.30226,1.03303 c -0.71625,0.56817 -1.90064,1.44421 -2.63199,1.94676 l -1.32972,0.91372 -1.12426,-0.007 c -0.61835,-0.004 -1.37396,-0.096 -1.67913,-0.20502 z"
       id="path64" />
    <path
       style="fill:#c478e0;fill-opacity:1;fill-rule:evenodd;stroke:#c478e0;stroke-width:2;stroke-linecap:round;stroke-opacity:1"
       d="m 99.103317,158.34159 c -0.809292,-0.41759 -0.87549,-0.48787 -0.679225,-0.72116 0.119602,-0.14215 0.761707,-0.91414 1.426901,-1.71552 0.665197,-0.80138 1.966337,-2.34445 2.891417,-3.42904 l 1.68198,-1.97198 0.28397,0.72292 c 0.63118,1.60685 1.74792,2.75063 3.30251,3.38247 l 0.85702,0.34831 -1.7499,0.87849 c -2.11175,1.06015 -3.72679,1.76632 -5.6302,2.46179 -0.78448,0.28663 -1.44015,0.51783 -1.45706,0.51377 -0.0169,-0.004 -0.434237,-0.21558 -0.927413,-0.47005 z"
       id="path65" />
    <path
       style="fill:#c478e0;fill-opacity:1;fill-rule:evenodd;stroke:#c478e0;stroke-width:2;stroke-linecap:round;stroke-opacity:1"
       d="m 78.374233,183.5158 c -0.253067,-0.16565 -0.713968,-0.59656 -1.024225,-0.95757 l -0.564102,-0.65639 1.300064,-2.53067 c 1.692277,-3.29415 1.571723,-3.14414 2.286637,-2.84543 l 0.57185,0.23894 -0.09257,1.03484 c -0.05092,0.56916 -0.138313,2.08392 -0.194216,3.36613 l -0.101642,2.3313 -0.461943,0.16103 c -0.683895,0.23841 -1.20414,0.1954 -1.719849,-0.14218 z"
       id="path66" />
    <path
       style="fill:#c478e0;fill-opacity:1;fill-rule:evenodd;stroke:#c478e0;stroke-width:2;stroke-linecap:round;stroke-opacity:1"
       d="m 76.302688,191.65117 c -0.936049,-0.28473 -2.606369,-1.57081 -2.606369,-2.00679 0,-0.16965 1.966127,-5.23525 2.073739,-5.34286 0.03597,-0.036 0.339168,0.18194 0.673782,0.48425 0.994458,0.89843 1.488869,1.09421 2.776017,1.09927 l 1.152373,0.005 -0.21039,2.53068 c -0.116521,1.40158 -0.288518,2.60986 -0.385501,2.70817 -0.508918,0.51584 -2.507576,0.81662 -3.473651,0.52275 z"
       id="path67" />
    <path
       style="fill:#c478e0;fill-opacity:1;fill-rule:evenodd;stroke:#c478e0;stroke-width:2;stroke-linecap:round;stroke-opacity:1"
       d="m 74.666626,199.30465 c -1.104902,-0.2213 -2.238213,-0.92103 -2.902647,-1.79215 l -0.381188,-0.49976 0.696641,-2.38355 c 0.383153,-1.31096 0.696642,-2.42193 0.696642,-2.46882 0,-0.0469 0.333876,0.15982 0.741947,0.45937 1.310861,0.96226 2.071338,1.21486 3.705905,1.23095 0.801381,0.008 1.656807,-0.0412 1.900947,-0.10916 l 0.443892,-0.1235 -0.10253,0.89037 c -0.05639,0.4897 -0.215553,1.52857 -0.353693,2.30859 -0.231655,1.30805 -0.287953,1.43974 -0.724798,1.6954 -1.235495,0.72308 -2.607797,1.01525 -3.721118,0.79226 z"
       id="path68" />
    <path
       style="fill:#c478e0;fill-opacity:1;fill-rule:evenodd;stroke:#c478e0;stroke-width:2;stroke-linecap:round;stroke-opacity:1"
       d="m 72.031877,205.19634 c -0.808379,-0.28314 -2.169914,-1.1019 -2.169914,-1.30488 0,-0.22444 0.792239,-4.03706 0.852167,-4.10102 0.02895,-0.0309 0.479041,0.22855 1.000195,0.57656 0.521154,0.34802 1.335594,0.74656 1.809866,0.88566 0.989871,0.29032 2.86517,0.31705 3.839362,0.0547 0.362015,-0.0975 0.697489,-0.13795 0.745498,-0.0899 0.04801,0.048 -0.106242,0.78024 -0.342782,1.62719 -0.489824,1.75386 -0.496713,1.76043 -2.399442,2.2877 -1.325761,0.36739 -2.409413,0.38819 -3.33495,0.064 z"
       id="path69" />
    <path
       style="fill:#c478e0;fill-opacity:1;fill-rule:evenodd;stroke:#c478e0;stroke-width:2;stroke-linecap:round;stroke-opacity:1"
       d="m 70.518405,212.02601 c -0.535102,-0.26488 -0.727714,-0.49071 -1.111726,-1.30347 l -0.464488,-0.98309 0.229825,-1.63722 c 0.126403,-0.90047 0.229825,-1.66088 0.229825,-1.68979 0,-0.0289 0.346151,0.12283 0.769225,0.33722 1.257576,0.63726 2.514721,0.89286 3.910659,0.79511 0.67593,-0.0473 1.42745,-0.16152 1.670044,-0.25375 0.242594,-0.0922 0.471825,-0.13696 0.509402,-0.0994 0.03758,0.0376 -0.248783,0.81958 -0.636356,1.73779 -0.634143,1.50237 -0.782945,1.72916 -1.486634,2.2658 -0.763813,0.58249 -2.052221,1.13649 -2.665788,1.14627 -0.168712,0.003 -0.598006,-0.13929 -0.953988,-0.31549 z"
       id="path70" />
    <path
       style="fill:#c478e0;fill-opacity:1;fill-rule:evenodd;stroke:#c478e0;stroke-width:2;stroke-linecap:round;stroke-opacity:1"
       d="m 68.808694,218.67774 -0.363085,-0.0688 0.06194,-2.43378 c 0.03407,-1.33858 0.09643,-2.46828 0.138579,-2.51043 0.04215,-0.0422 0.453743,0.10991 0.914644,0.33791 0.695329,0.34398 1.039253,0.41385 2.020055,0.41042 l 1.182052,-0.004 -0.288456,0.46426 c -0.801372,1.28977 -2.870378,3.91179 -3.07258,3.89383 -0.126534,-0.0112 -0.39345,-0.0514 -0.593147,-0.0893 z"
       id="path71" />
    <path
       style="fill:#c478e0;fill-opacity:1;fill-rule:evenodd;stroke:#c478e0;stroke-width:2;stroke-linecap:round;stroke-opacity:1"
       d="m 67.622705,256.8442 c -0.328991,-0.2426 -0.812621,-0.67396 -1.074734,-0.95859 l -0.476569,-0.51751 0.294695,-2.30062 c 0.162082,-1.26533 0.342028,-2.34552 0.399881,-2.40041 0.163672,-0.1553 2.220554,0.23424 2.286837,0.43309 0.03245,0.0973 0.252536,1.28276 0.48909,2.63427 l 0.430098,2.45729 -0.559953,0.54678 c -0.677989,0.66204 -1.008402,0.68155 -1.789345,0.1057 z"
       id="path72" />
    <path
       style="fill:#c478e0;fill-opacity:1;fill-rule:evenodd;stroke:#c478e0;stroke-width:2;stroke-linecap:round;stroke-opacity:1"
       d="m 67.936556,265.18605 c -0.417253,-0.20979 -1.086479,-0.66378 -1.487169,-1.00887 l -0.728528,-0.62743 0.01517,-1.79021 c 0.0083,-0.98462 0.06011,-2.1593 0.115031,-2.61042 l 0.09986,-0.8202 0.412815,0.32582 c 1.013481,0.79989 2.512567,1.01264 3.519175,0.49945 l 0.54593,-0.27834 0.384557,2.69398 0.384556,2.69397 -0.322903,0.36002 c -0.407987,0.45488 -1.350895,0.94366 -1.820421,0.94366 -0.197687,0 -0.70082,-0.17164 -1.118073,-0.38143 z"
       id="path73" />
    <path
       style="fill:#c478e0;fill-opacity:1;fill-rule:evenodd;stroke:#c478e0;stroke-width:2;stroke-linecap:round;stroke-opacity:1"
       d="m 67.383565,272.10095 -1.27927,-0.67513 -0.09838,-0.89696 c -0.105815,-0.96471 -0.165578,-3.88776 -0.07949,-3.88776 0.0287,0 0.494579,0.2214 1.035276,0.492 1.246484,0.62381 2.711807,0.68984 3.840916,0.17309 l 0.71059,-0.32522 0.0893,0.86534 c 0.04911,0.47594 0.134653,1.42944 0.190087,2.11889 l 0.100788,1.25353 -0.577396,0.51027 c -1.4822,1.30987 -2.0529,1.36385 -3.932418,0.37195 z"
       id="path74" />
    <path
       style="fill:#c478e0;fill-opacity:1;fill-rule:evenodd;stroke:#c478e0;stroke-width:2;stroke-linecap:round;stroke-opacity:1"
       d="m 68.237687,279.52295 c -1.524805,-0.77671 -1.485082,-0.71481 -1.698205,-2.6464 -0.10457,-0.94774 -0.193502,-1.97906 -0.197627,-2.29182 l -0.0075,-0.56864 0.958589,0.45349 c 1.339008,0.63346 2.624971,0.6358 3.871494,0.007 l 0.885581,-0.4467 -0.07322,2.28104 c -0.04831,1.50515 -0.138651,2.35989 -0.265583,2.51283 -0.244446,0.29454 -1.967882,1.16087 -2.309379,1.16087 -0.141765,0 -0.665634,-0.20777 -1.164154,-0.46171 z"
       id="path75" />
    <path
       style="fill:#c478e0;fill-opacity:1;fill-rule:evenodd;stroke:#c478e0;stroke-width:2;stroke-linecap:round;stroke-opacity:1"
       d="m 67.966123,288.3819 c -0.198363,-1.10493 -0.878993,-6.74715 -0.820924,-6.80522 0.03427,-0.0343 0.33172,0.0535 0.661007,0.19514 0.773629,0.33267 2.406589,0.33751 3.168791,0.009 0.570243,-0.24548 0.57549,-0.24455 0.505546,0.0897 -0.451668,2.15818 -0.601585,2.78001 -0.87643,3.63526 -0.176208,0.54831 -0.523821,1.53182 -0.772474,2.18558 l -0.452095,1.18865 h -0.661966 c -0.626229,0 -0.666798,-0.0269 -0.751455,-0.49847 z"
       id="path76" />
    <path
       style="fill:#c478e0;fill-opacity:1;fill-rule:evenodd;stroke:#c478e0;stroke-width:2;stroke-linecap:round;stroke-opacity:1"
       d="m 68.09816,318.5988 c -0.337424,-0.0868 -0.636721,-0.17768 -0.665105,-0.20192 -0.09605,-0.082 -0.942636,-4.43671 -0.943986,-4.85569 -0.0011,-0.35225 0.08793,-0.43991 0.58217,-0.57299 1.604231,-0.43198 1.328855,-0.62266 3.014241,2.08724 0.830685,1.33565 1.517075,2.53215 1.525311,2.6589 0.0086,0.13252 -0.338895,0.40968 -0.817741,0.65222 -0.887523,0.44954 -1.608724,0.51169 -2.69489,0.23224 z"
       id="path77" />
    <path
       style="fill:#c478e0;fill-opacity:1;fill-rule:evenodd;stroke:#c478e0;stroke-width:2;stroke-linecap:round;stroke-opacity:1"
       d="m 70.47546,325.22561 c -0.463957,-0.17426 -0.95512,-0.35371 -1.091473,-0.39878 -0.214784,-0.071 -0.916246,-2.02681 -1.285602,-3.5845 l -0.09092,-0.38343 h 1.367427 c 1.271551,0 1.443814,-0.0392 2.456854,-0.55895 l 1.089426,-0.55895 0.522884,0.94238 c 0.287586,0.51831 0.696392,1.2883 0.908457,1.71107 l 0.385572,0.76869 -0.61232,0.76319 c -1.222456,1.52366 -2.162252,1.85817 -3.650305,1.29928 z"
       id="path78" />
    <path
       style="fill:#c478e0;fill-opacity:1;fill-rule:evenodd;stroke:#c478e0;stroke-width:2;stroke-linecap:round;stroke-opacity:1"
       d="m 72.477539,331.5896 c -0.459439,-0.12854 -0.846167,-0.2489 -0.859395,-0.26748 -0.07869,-0.11051 -1.449432,-3.54186 -1.449432,-3.62833 0,-0.0579 0.603911,-0.10104 1.342024,-0.0959 1.618862,0.0114 2.466984,-0.33595 3.610985,-1.47879 l 0.735217,-0.73448 0.453586,1.01096 c 0.249472,0.55603 0.633704,1.51832 0.853849,2.13843 l 0.400263,1.12748 -0.570456,0.69617 c -0.31375,0.38289 -0.811083,0.84488 -1.105183,1.02664 -0.697659,0.43118 -2.266521,0.52557 -3.411458,0.20526 z"
       id="path79" />
    <path
       style="fill:#c478e0;fill-opacity:1;fill-rule:evenodd;stroke:#c478e0;stroke-width:2;stroke-linecap:round;stroke-opacity:1"
       d="m 75.141987,337.47346 c -0.600392,-0.15281 -0.655997,-0.2216 -1.418711,-1.75521 -0.436606,-0.87789 -0.793828,-1.62985 -0.793828,-1.67101 0,-0.0412 0.461346,-0.0748 1.025214,-0.0748 1.391616,0 2.610062,-0.37088 3.54622,-1.07943 0.911785,-0.69011 0.840141,-0.77759 1.171499,1.43057 0.249774,1.66448 0.305304,1.47093 -0.771344,2.68857 -0.416367,0.47089 -0.572937,0.54028 -1.303681,0.57778 -0.456767,0.0235 -1.111682,-0.0289 -1.455369,-0.11642 z"
       id="path80" />
    <path
       style="fill:#c478e0;fill-opacity:1;fill-rule:evenodd;stroke:#c478e0;stroke-width:2;stroke-linecap:round;stroke-opacity:1"
       d="m 76.954068,341.42758 -0.960044,-1.55028 0.90342,-0.09 c 0.496881,-0.0495 1.195258,-0.24213 1.551949,-0.42805 l 0.648529,-0.33803 -0.05581,1.75801 c -0.03069,0.9669 -0.09788,1.80007 -0.149297,1.85149 -0.05142,0.0514 -0.292663,0.15056 -0.536098,0.22032 -0.431841,0.12375 -0.465967,0.0891 -1.402652,-1.42344 z"
       id="path81" />
    <path
       style="fill:#c478e0;fill-opacity:1;fill-rule:evenodd;stroke:#c478e0;stroke-width:2;stroke-linecap:round;stroke-opacity:1"
       d="m 100.72596,376.50185 c -0.24267,-0.0466 -0.71746,-0.62569 -1.572091,-1.91736 -0.673431,-1.0178 -1.224421,-1.91828 -1.224421,-2.00106 0,-0.15383 0.106042,-0.08 2.576372,1.79276 1.27617,0.96749 1.41594,1.12149 1.3297,1.46511 -0.053,0.21119 -0.1683,0.47064 -0.2562,0.57655 -0.1623,0.19557 -0.23534,0.20276 -0.85336,0.084 z"
       id="path82" />
    <path
       style="fill:#c478e0;fill-opacity:1;fill-rule:evenodd;stroke:#c478e0;stroke-width:2;stroke-linecap:round;stroke-opacity:1"
       d="m 103.16177,379.9078 c -1.09242,-1.28294 -1.10429,-1.30613 -0.73983,-1.4447 0.20373,-0.0774 0.62017,-0.43261 0.92542,-0.78923 l 0.55501,-0.6484 1.03961,0.89387 c 1.37634,1.18338 1.42305,1.24962 1.42305,2.01795 0,0.91475 -0.38188,1.27437 -1.35326,1.27437 -0.73903,0 -0.74088,-10e-4 -1.85,-1.30386 z"
       id="path83" />
    <path
       style="fill:#c478e0;fill-opacity:1;fill-rule:evenodd;stroke:#c478e0;stroke-width:2;stroke-linecap:round;stroke-opacity:1"
       d="m 107.90057,384.78774 -1.56206,-1.48526 0.5315,-0.27268 c 0.63507,-0.32581 1.29737,-1.07597 1.43536,-1.62577 l 0.0998,-0.39748 0.55204,0.62515 c 2.52462,2.859 2.46921,2.7823 2.46921,3.41825 0,0.83712 -0.40662,1.22306 -1.28862,1.22306 -0.6439,0 -0.74736,-0.0687 -2.23719,-1.48527 z"
       id="path84" />
    <path
       style="fill:#c478e0;fill-opacity:1;fill-rule:evenodd;stroke:#c478e0;stroke-width:2;stroke-linecap:round;stroke-opacity:1"
       d="m 114.13581,390.22855 -2.39703,-1.99911 0.59876,-0.43374 c 0.32932,-0.23856 0.6586,-0.54068 0.73175,-0.67138 0.10249,-0.18315 0.53606,0.31419 1.89075,2.16886 2.13113,2.91768 2.03185,2.75833 1.77901,2.85535 -0.11652,0.0447 -1.24888,-0.79044 -2.60324,-1.91998 z"
       id="path85" />
    <path
       style="fill:#c478e0;fill-opacity:1;fill-rule:evenodd;stroke:#c478e0;stroke-width:2;stroke-linecap:round;stroke-opacity:1"
       d="m 145.69882,423.61708 c -1.40794,-1.00191 -1.91498,-1.4545 -1.6295,-1.4545 0.15912,0 2.06338,0.49944 3.28758,0.86225 0.22875,0.0678 0.81213,1.09835 0.68959,1.21817 -0.0222,0.0217 -0.28494,0.0851 -0.58387,0.14096 -0.48865,0.0913 -0.6667,0.0138 -1.7638,-0.76688 z"
       id="path86" />
    <path
       style="fill:#c478e0;fill-opacity:1;fill-rule:evenodd;stroke:#c478e0;stroke-width:2;stroke-linecap:round;stroke-opacity:1"
       d="m 150.92025,426.57682 c -1.15016,-0.57894 -1.0996,-0.51898 -0.75686,-0.8977 0.18989,-0.20982 0.2906,-0.55262 0.29303,-0.99739 0.002,-0.37273 0.0382,-0.67548 0.0804,-0.67279 0.0422,0.003 0.69785,0.26167 1.45706,0.57551 1.18928,0.49163 1.38673,0.62524 1.42634,0.96513 0.0578,0.49553 -0.34771,0.99026 -1.04291,1.27251 -0.50775,0.20615 -0.58663,0.19287 -1.45705,-0.24527 z"
       id="path145" />
    <path
       style="fill:#c478e0;fill-opacity:1;fill-rule:evenodd;stroke:#c478e0;stroke-width:2;stroke-linecap:round;stroke-opacity:1"
       d="m 156.4396,428.92886 c -0.75804,-0.3159 -1.50937,-0.62349 -1.66963,-0.68353 -0.28358,-0.10624 -0.28306,-0.1183 0.0192,-0.45025 0.1708,-0.1876 0.39369,-0.50211 0.4953,-0.69891 0.1801,-0.34882 0.19259,-0.35075 0.49655,-0.0767 0.54079,0.48758 2.16128,2.3593 2.09769,2.42289 -0.0335,0.0335 -0.68106,-0.19761 -1.43909,-0.51351 z"
       id="path146" />
  </g>
</svg>
